<?xml version="1.0" encoding="utf-8"?>
<!-- Generator: Adobe Illustrator 24.1.0, SVG Export Plug-In . SVG Version: 6.00 Build 0)  -->
<svg version="1.1" id="Layer_1" xmlns="http://www.w3.org/2000/svg" xmlns:xlink="http://www.w3.org/1999/xlink" x="0px" y="0px"
	 viewBox="0 0 95.3 115.5" style="enable-background:new 0 0 95.3 115.5;" xml:space="preserve">
<style type="text/css">
	.st0{fill:#E6A329;}
	.st1{fill:#F1BF22;}
	.st2{fill:#FFFFFF;}
	.st3{fill:#EBEBEB;}
</style>
<path class="st0" d="M86.9,26.6H8.4l7.4,79.9l31.9,9.1l31.9-9.1L86.9,26.6z"/>
<path class="st1" d="M47.6,33.1v75.6l25.9-7.3l6.3-68.3L47.6,33.1z"/>
<path class="st2" d="M68.2,42.9H28.5l-2.8,29.9l0.1-0.2h33.8l-1.1,12.7l-10.8,3.1l-10.9-3.2l-0.7-7.7h-9.9l1.4,15.3l20.1,5.7
	l20.1-5.7l2.8-30H34.7l0.5-10H60l0.4,5.7h10L68.2,42.9z"/>
<path class="st3" d="M47.7,42.9H28.5l-2.8,29.9l0.1-0.2h21.9v-9.8H36.1l0.5-10h11.1V42.9z M36.1,77.6h-9.9l1.4,15.3l20.1,5.7V88.4
	l-10.9-3.2L36.1,77.6z"/>
<path class="st2" d="M40,14.9h-7v5h12V5h-5L40,14.9z M62.3,5H50.1v5.2c1.6,1.6,2.5,2.4,4.9,4.8h-4.9v4.8h12.2V15l-4.9-4.8h4.9
	L62.3,5z"/>
</svg>
