<svg id="Layer_1" data-name="Layer 1" xmlns="http://www.w3.org/2000/svg" viewBox="0 0 395 395"><defs><style>.cls-1{opacity:0;}.cls-2{opacity:0.01;}.cls-3{opacity:0.02;}.cls-4{opacity:0.03;}.cls-5{opacity:0.04;}.cls-6{opacity:0.05;}.cls-7{opacity:0.06;}.cls-8{opacity:0.07;}.cls-9{opacity:0.08;}.cls-10{opacity:0.09;}.cls-11{opacity:0.1;}.cls-12{opacity:0.11;}.cls-13{opacity:0.12;}.cls-14{opacity:0.13;}.cls-15{opacity:0.14;}.cls-16{opacity:0.15;}.cls-17{opacity:0.16;}.cls-18{opacity:0.17;}.cls-19{opacity:0.18;}.cls-20{opacity:0.19;}.cls-21{opacity:0.2;}.cls-22{opacity:0.21;}.cls-23{opacity:0.22;}.cls-24{opacity:0.23;}.cls-25{opacity:0.24;}.cls-26{opacity:0.25;}.cls-27{opacity:0.26;}.cls-28{opacity:0.27;}.cls-29{opacity:0.28;}.cls-30{opacity:0.29;}.cls-31{opacity:0.3;}.cls-32{opacity:0.31;}.cls-33{opacity:0.32;}.cls-34{opacity:0.33;}.cls-35{opacity:0.34;}.cls-36{opacity:0.35;}.cls-37{opacity:0.36;}.cls-38{opacity:0.37;}.cls-39{opacity:0.38;}.cls-40{opacity:0.39;}.cls-41{opacity:0.4;}.cls-42{opacity:0.41;}.cls-43{fill:#fff;}.cls-44{fill:#117bb8;}</style></defs><circle class="cls-1" cx="197.5" cy="197.5" r="197.5"/><circle class="cls-2" cx="197.51" cy="197.51" r="196.98"/><circle class="cls-3" cx="197.52" cy="197.52" r="196.45"/><circle class="cls-4" cx="197.54" cy="197.54" r="195.93"/><circle class="cls-5" cx="197.55" cy="197.55" r="195.4"/><circle class="cls-6" cx="197.56" cy="197.56" r="194.88"/><circle class="cls-7" cx="197.57" cy="197.57" r="194.35"/><circle class="cls-8" cx="197.59" cy="197.59" r="193.83"/><circle class="cls-9" cx="197.6" cy="197.6" r="193.3"/><circle class="cls-10" cx="197.61" cy="197.61" r="192.78"/><circle class="cls-11" cx="197.62" cy="197.62" r="192.26"/><circle class="cls-12" cx="197.63" cy="197.63" r="191.73"/><circle class="cls-13" cx="197.65" cy="197.65" r="191.21"/><circle class="cls-14" cx="197.66" cy="197.66" r="190.68"/><circle class="cls-15" cx="197.67" cy="197.67" r="190.16"/><circle class="cls-16" cx="197.68" cy="197.68" r="189.63"/><circle class="cls-17" cx="197.7" cy="197.7" r="189.11"/><circle class="cls-18" cx="197.71" cy="197.71" r="188.59"/><circle class="cls-19" cx="197.72" cy="197.72" r="188.06"/><circle class="cls-20" cx="197.73" cy="197.73" r="187.54"/><circle class="cls-21" cx="197.74" cy="197.74" r="187.01"/><circle class="cls-22" cx="197.76" cy="197.76" r="186.49"/><circle class="cls-23" cx="197.77" cy="197.77" r="185.96"/><circle class="cls-24" cx="197.78" cy="197.78" r="185.44"/><circle class="cls-25" cx="197.79" cy="197.79" r="184.91"/><circle class="cls-26" cx="197.8" cy="197.8" r="184.39"/><circle class="cls-27" cx="197.82" cy="197.82" r="183.87"/><circle class="cls-28" cx="197.83" cy="197.83" r="183.34"/><circle class="cls-29" cx="197.84" cy="197.84" r="182.82"/><circle class="cls-30" cx="197.85" cy="197.85" r="182.29"/><circle class="cls-31" cx="197.87" cy="197.87" r="181.77"/><circle class="cls-32" cx="197.88" cy="197.88" r="181.24"/><circle class="cls-33" cx="197.89" cy="197.89" r="180.72"/><circle class="cls-34" cx="197.9" cy="197.9" r="180.2"/><circle class="cls-35" cx="197.91" cy="197.91" r="179.67"/><circle class="cls-36" cx="197.93" cy="197.93" r="179.15"/><circle class="cls-37" cx="197.94" cy="197.94" r="178.62"/><circle class="cls-38" cx="197.95" cy="197.95" r="178.1"/><circle class="cls-39" cx="197.96" cy="197.96" r="177.57"/><circle class="cls-40" cx="197.98" cy="197.98" r="177.05"/><circle class="cls-41" cx="197.99" cy="197.99" r="176.52"/><circle class="cls-42" cx="198" cy="198" r="176"/><circle class="cls-43" cx="197.5" cy="197.5" r="175.92"/><rect class="cls-44" x="94.99" y="161.9" width="44.08" height="142.39"/><path class="cls-44" d="M117.43,143.71a26.28,26.28,0,1,0-26.07-26.28A26.18,26.18,0,0,0,117.43,143.71Z" transform="translate(-0.61 -0.45)"/><path class="cls-44" d="M210.13,230c0-20,9.21-31.94,26.86-31.94,16.2,0,24,11.45,24,31.94v74.75h43.87V214.58c0-38.13-21.62-56.58-51.81-56.58a49.65,49.65,0,0,0-42.91,23.53V162.35H167.85V304.74h42.28Z" transform="translate(-0.61 -0.45)"/></svg>