<?xml version="1.0" encoding="utf-8"?>
<!-- Generator: Adobe Illustrator 24.1.0, SVG Export Plug-In . SVG Version: 6.00 Build 0)  -->
<svg version="1.1" id="Layer_1" xmlns="http://www.w3.org/2000/svg" xmlns:xlink="http://www.w3.org/1999/xlink" x="0px" y="0px"
	 viewBox="0 0 134.2 73.9" style="enable-background:new 0 0 134.2 73.9;" xml:space="preserve">
<style type="text/css">
	.st0{fill:#8993BE;}
	.st1{fill-rule:evenodd;clip-rule:evenodd;fill:#232531;}
</style>
<ellipse class="st0" cx="67.1" cy="36.9" rx="53.9" ry="28.1"/>
<path class="st1" d="M28.3,53.6l5.9-29.9h13.7c5.9,0.4,8.9,3.3,8.9,8.5c0,8.9-7,14-13.3,13.7h-6.6l-1.5,7.8L28.3,53.6z M38.3,40.3
	l1.8-11.1h4.8c2.6,0,4.4,1.1,4.4,3.3c-0.4,6.3-3.3,7.4-6.6,7.8H38.3L38.3,40.3z M55.4,45.8l5.9-29.9h7l-1.5,7.8h6.6
	c5.9,0.4,8.1,3.3,7.4,7l-2.6,15.1h-7.4l2.6-13.7c0.4-1.8,0.4-3-2.2-3h-5.5l-3.3,16.6H55.4z M77.8,53.6l5.9-29.9h13.7
	c5.9,0.4,8.9,3.3,8.9,8.5c0,8.9-7,14-13.3,13.7h-6.6l-1.5,7.8L77.8,53.6z M87.8,40.3l1.8-11.1h4.8c2.6,0,4.4,1.1,4.4,3.3
	c-0.4,6.3-3.3,7.4-6.6,7.8H87.8z"/>
</svg>
